<svg xmlns="http://www.w3.org/2000/svg" viewBox="0 0 512 512">
  <defs>
    <linearGradient id="planeGradient" x1="0%" y1="100%" x2="100%" y2="0%">
      <stop offset="20%" stop-color="rgb(247, 48, 48)"></stop>
      <stop offset="100%" stop-color="#053355 "></stop>
    </linearGradient>
  </defs>
  <path fill="url(#planeGradient)" d="M476.3 3.4c-3.8-2.7-8.8-3.4-13.2-1.7L19.2 176.2c-5.9 2.3-9.9 7.9-10.1 14.3-.2 6.3 3.5 12.1 9.3 14.8l140.6 66.7L319.4 79.5 205.6 291.2l.1.1-.1.2v101.5c0 6.7 4.2 12.6 10.5 14.9 1.7.6 3.4.9 5.1.9 4.7 0 9.2-2 12.4-5.6l64.1-70.5 120.5 57.2c2.2.9 4.6 1.4 6.9 1.4 2.6 0 5.3-.6 7.7-1.9 4.4-2.3 7.6-6.5 8.7-11.4l96-416c1.2-5.4-.7-11-4.5-14.5z"></path>
</svg>
