<?xml version="1.0" encoding="utf-8"?>
<!-- Generator: Adobe Illustrator 27.6.1, SVG Export Plug-In . SVG Version: 6.00 Build 0)  -->
<svg version="1.1" id="Layer_1" xmlns="http://www.w3.org/2000/svg" xmlns:xlink="http://www.w3.org/1999/xlink" x="0px" y="0px"
	 viewBox="0 0 920 210" style="enable-background:new 0 0 920 210;" xml:space="preserve">
<style type="text/css">
	.st0{fill:#1F4492;}
	.st1{fill-rule:evenodd;clip-rule:evenodd;fill:#F3F3F3;}
	.st2{fill-rule:evenodd;clip-rule:evenodd;fill:#7AA742;}
	.st3{fill-rule:evenodd;clip-rule:evenodd;fill:#F79226;}
	.st4{fill-rule:evenodd;clip-rule:evenodd;fill:#1F4395;}
	.st5{fill-rule:evenodd;clip-rule:evenodd;fill:#82D2E6;}
	.st6{fill-rule:evenodd;clip-rule:evenodd;fill:#FFFFFF;}
	.st7{fill:#1F4395;}
</style>
<g>
	<g>
		<g>
			<path class="st0" d="M201.7,163h-17.9v-23.8H200c6.6,0,9.9,2.2,9.9,6.6c0,2-0.6,3.6-1.8,4.7c2.3,1,3.5,3,3.5,5.8
				C211.6,160.8,208.3,163,201.7,163z M198.9,148.7c2.1,0,3.1-0.6,3.1-1.8V146c0-0.6-0.7-0.9-2.2-1h-8v3.7H198.9z M201.5,157.1
				c1.4,0,2.2-0.7,2.2-1.9c0-1.2-1-1.8-3.1-1.8h-8.8v3.7H201.5z"/>
			<path class="st0" d="M225.5,163c-8.2-0.2-12.3-3.4-12.3-9.8c0-6.3,4.1-9.5,12.3-9.8c8.2,0.2,12.3,3.5,12.3,9.8
				C237.8,159.6,233.7,162.9,225.5,163z M225.5,157.7c3.7,0,5.5-1.5,5.5-4.4v-0.1c0-2.9-1.8-4.4-5.5-4.4c-3.7,0-5.5,1.4-5.5,4.4v0.1
				C219.9,156.2,221.8,157.7,225.5,157.7z"/>
			<path class="st0" d="M252,163c-8.2-0.2-12.3-3.4-12.3-9.8c0-6.3,4.1-9.5,12.3-9.8c8.2,0.2,12.3,3.5,12.3,9.8
				C264.3,159.6,260.2,162.9,252,163z M252,157.7c3.7,0,5.5-1.5,5.5-4.4v-0.1c0-2.9-1.8-4.4-5.5-4.4c-3.7,0-5.5,1.4-5.5,4.4v0.1
				C246.5,156.2,248.3,157.7,252,157.7z"/>
			<path class="st0" d="M275.6,156.8v6.2h-8v-23.8h8v9.7l5.3-5.5h9.7l-8.4,9.7l8.5,9.8h-9.7L275.6,156.8z"/>
			<path class="st0" d="M293.5,151.1c0-1.4,0.5-2.5,1.4-3.5c1-1,2.1-1.4,3.5-1.4c1.4,0,2.5,0.5,3.5,1.4c1,1,1.4,2.1,1.4,3.5
				s-0.5,2.5-1.4,3.5c-1,1-2.1,1.4-3.5,1.4c-1.4,0-2.5-0.5-3.5-1.4C294,153.6,293.5,152.4,293.5,151.1z"/>
			<path class="st0" d="M324.9,146.1V163h-8v-16.9h-10.3v-6.9h28.6v6.9H324.9z"/>
			<path class="st0" d="M346.1,163h-8v-19.6h8v2.9c1.1-1.9,3.1-2.9,5.9-2.9c4.9,0.3,7.3,3,7.3,8.2c0,0.5,0,1.1-0.1,1.7h-5.9
				c0-2.6-1-3.8-3-3.8c-2.8,0-4.2,1.3-4.2,3.8c0,2.1,0,4.5-0.1,7V163z"/>
			<path class="st0" d="M377,160.2c-1.5,1.8-3.6,2.7-6.4,2.8c-6.2-0.2-9.3-3.5-9.3-9.8c0-6.3,3.1-9.5,9.3-9.8l0.5,0
				c2.9,0,4.9,1.2,5.9,3.6v-3.6h8V163h-8V160.2z M372.8,157.1c2.8,0,4.2-1.3,4.2-3.8v-0.1c0-2.5-1.4-3.8-4.2-3.8
				c-3.1,0-4.7,1.3-4.7,3.8C368.1,155.8,369.7,157.1,372.8,157.1z"/>
			<path class="st0" d="M406.1,163h-9l-9.6-19.6h9.2l4.9,10l4.9-10h9.2L406.1,163z"/>
			<path class="st0" d="M422.6,154c0.3,2.5,2.1,3.7,5.5,3.7c2.9,0,4.7-0.9,5.3-2.7h6.9c-0.7,5.2-4.8,7.9-12.2,8
				c-8.2-0.2-12.3-3.4-12.3-9.8c0-6.3,4.1-9.5,12.3-9.8c8.2,0.2,12.3,3.5,12.3,9.8c0,0.3,0,0.5,0,0.7H422.6z M433.3,151.3
				c-0.7-1.6-2.4-2.5-5.2-2.5c-2.8,0-4.5,0.8-5.2,2.5H433.3z"/>
			<path class="st0" d="M450.6,163h-8v-23.8h8V163z"/>
			<path class="st0" d="M453.9,151.1c0-1.4,0.5-2.5,1.4-3.5c1-1,2.1-1.4,3.5-1.4c1.4,0,2.5,0.5,3.5,1.4c1,1,1.4,2.1,1.4,3.5
				s-0.5,2.5-1.4,3.5c-1,1-2.1,1.4-3.5,1.4c-1.4,0-2.5-0.5-3.5-1.4C454.4,153.6,453.9,152.4,453.9,151.1z"/>
			<path class="st0" d="M491.1,163h-24v-23.8h24v5.8h-16v3.8h16v4.7h-16v3.8h16V163z"/>
			<path class="st0" d="M506.4,158.8l-3.7,4.2H493l8.5-9.8l-8.4-9.7h9.7l3.6,4.1l3.6-4.1h9.7l-8.4,9.7l8.5,9.8h-9.7L506.4,158.8z"/>
			<path class="st0" d="M529.6,146.2c1.5-1.8,3.6-2.7,6.4-2.8c6.2,0.2,9.3,3.5,9.3,9.8c0,6.3-3.1,9.5-9.3,9.8l-0.5,0
				c-2.8,0-4.8-1.2-5.9-3.5v7.8h-8v-23.8h8L529.6,146.2L529.6,146.2z M533.8,149.4c-2.8,0-4.2,1.3-4.2,3.8v0.1
				c0,2.5,1.4,3.8,4.2,3.8c3.1,0,4.7-1.3,4.7-3.8C538.5,150.7,536.9,149.4,533.8,149.4z"/>
			<path class="st0" d="M555.8,163h-8v-23.8h8V163z"/>
			<path class="st0" d="M570.5,163c-8.2-0.2-12.3-3.4-12.3-9.8c0-6.3,4.1-9.5,12.3-9.8c8.2,0.2,12.3,3.5,12.3,9.8
				C582.9,159.6,578.7,162.9,570.5,163z M570.5,157.7c3.7,0,5.5-1.5,5.5-4.4v-0.1c0-2.9-1.8-4.4-5.5-4.4c-3.7,0-5.5,1.4-5.5,4.4v0.1
				C565,156.2,566.8,157.7,570.5,157.7z"/>
			<path class="st0" d="M593.2,163h-8v-19.6h8v2.9c1.1-1.9,3.1-2.9,5.9-2.9c4.9,0.3,7.3,3,7.3,8.2c0,0.5,0,1.1-0.1,1.7h-5.9
				c0-2.6-1-3.8-3-3.8c-2.8,0-4.2,1.3-4.2,3.8c0,2.1,0,4.5-0.1,7V163z"/>
			<path class="st0" d="M615.3,154c0.3,2.5,2.1,3.7,5.5,3.7c2.9,0,4.7-0.9,5.3-2.7h6.9c-0.7,5.2-4.8,7.9-12.2,8
				c-8.2-0.2-12.3-3.4-12.3-9.8c0-6.3,4.1-9.5,12.3-9.8c8.2,0.2,12.3,3.5,12.3,9.8c0,0.3,0,0.5,0,0.7H615.3z M626,151.3
				c-0.7-1.6-2.4-2.5-5.2-2.5c-2.8,0-4.5,0.8-5.2,2.5H626z"/>
		</g>
		<g>
			<path class="st1" d="M18.4,68.8l0.5-0.2c0.3-4.9,2.3-9.1,5.5-12.3c3.5-3.5,8.2-5.7,13.5-5.7h3l0.8-3.1c1.3-5,4.6-9.3,8.8-11.8
				c4.2-2.5,9.3-3.5,14.5-2.2l74.2,18.5c5,1.3,9.3,4.6,11.8,8.8c2.5,4.2,3.5,9.3,2.2,14.5l-18.9,74l0,0c-0.9,3.8-3,7.1-5.7,9.4
				c-0.2,0.3-0.5,0.5-0.6,0.8c-3.5,3.5-8.2,5.7-13.5,5.7h-5.3l-64.6,15.1c-5.2,1.3-10.2,0.2-14.5-2.3c-4.1-2.5-7.4-6.8-8.5-11.9
				L4.2,91.8C3,86.6,4.1,81.5,6.6,77.3C9.1,73.2,13.4,69.9,18.4,68.8"/>
			<path class="st2" d="M19.5,73.4l74.3-17.3c7.7-1.7,15.6,3,17.5,10.8l17.3,74.3c1.7,7.7-3,15.6-10.8,17.5L43.4,176
				c-7.7,1.7-15.6-3-17.5-10.8L8.7,90.8C6.9,83,11.8,75.1,19.5,73.4"/>
			<path class="st3" d="M38.1,55.4h76.4c8,0,14.5,6.5,14.5,14.5v76.4c0,8-6.5,14.5-14.5,14.5H38.1c-8,0-14.5-6.5-14.5-14.5V69.9
				C23.6,61.9,30.1,55.4,38.1,55.4"/>
			<path class="st4" d="M63.7,38.2l74.2,18.5c7.7,1.9,12.4,9.9,10.5,17.6l-18.5,74.2c-1.9,7.7-9.9,12.4-17.6,10.5l-74.2-18.5
				c-7.7-1.9-12.4-9.9-10.5-17.6l18.5-74.2C48.1,41,56,36.3,63.7,38.2"/>
			<path class="st5" d="M81.1,75.6c0,0,45.1-6,53.6,42.3C134.7,118,135.5,54.5,81.1,75.6"/>
			<path class="st3" d="M81.1,75.7c0,0,44.2,10.7,34.7,59C115.7,134.5,139.5,75.7,81.1,75.7"/>
			<path class="st2" d="M81,75.7c0,0,37.6,25.8,11.5,67.3C92.5,143,135.4,96.5,81,75.7"/>
			<path class="st6" d="M58.8,91.6c0,0,15.3-14.6,18.1-26.6c0,0,3.1-9.7-2-10.2c0,0-3.1-1.6-7.6,8.8C67.3,63.6,59.6,79,58.8,91.6
				 M37.3,121.3l8.2-8c0,0-9.1,20.4,3.3,24.4c0,0,13.8,3.9,26.6-26.7c0,0,6.6,24.8,26.4,9.9l0.9-8.2c0,0-11.8,13.4-17.8,3.9
				c0,0-5.3-7.1-9.7-20.1c0,0-12.6,36.2-24.8,35.1c0,0-5.5-1.7,0.5-17.8c0,0,2.3-9.1,11.6-17.8c0,0,20.3-19.5,20.9-35.4
				c0,0,2-14.6-11.9-10.5c0,0-6,0.8-12.1,17.3c0,0-6.5,20.6-9.3,31.1l-15.7,17.9L37.3,121.3z"/>
		</g>
		<path class="st0" d="M370.5,77.9c1.5,0,2.9-0.1,4-0.5c1.2-0.3,2.3-0.8,3.2-1.4v-7.4c-0.6,0.3-1.4,0.6-2.2,0.9
			c-0.8,0.1-1.5,0.3-2.5,0.3c-1.1,0-1.8-0.3-2.3-0.8s-0.8-1.4-0.8-2.3V53h7.7v-8.1h-7.7v-8.3h-9.2v8.3H357v7.8h3.8v15.4
			c0,1.8,0.3,3.4,0.6,4.8c0.5,1.2,1.1,2.3,2,3.1c0.8,0.8,1.8,1.2,2.9,1.5C367.9,77.7,369.1,77.9,370.5,77.9 M336.1,71.6
			c-1.1,0-1.8-0.1-2.6-0.5c-0.8-0.3-1.4-0.8-1.7-1.4c-0.5-0.6-0.6-1.2-0.6-2.2v-0.1c0-0.9,0.3-1.8,0.8-2.5c0.5-0.6,1.2-1.2,2.2-1.5
			c0.9-0.3,2.2-0.5,3.4-0.5c1.1,0,2.2,0.1,3.2,0.3c1.1,0.1,1.8,0.5,2.6,0.9v1.7c0,1.1-0.3,2.2-0.9,2.9c-0.6,0.9-1.4,1.5-2.5,2
			C338.8,71.3,337.5,71.6,336.1,71.6z M333.4,77.9c2.3,0,4.1-0.5,5.7-1.1c1.5-0.8,2.9-1.7,4-2.9v3.5h8.9V58.5c0-2.2-0.3-4.1-0.9-5.8
			c-0.6-1.7-1.4-3.2-2.6-4.4c-1.1-1.2-2.6-2-4.4-2.6c-1.8-0.6-4-0.9-6.5-0.9c-1.8,0-3.5,0.1-4.9,0.3c-1.4,0.1-2.8,0.5-4,0.9
			c-1.2,0.3-2.5,0.9-3.7,1.4l2.3,7.1c0.9-0.3,2-0.6,2.9-0.9c0.9-0.3,1.8-0.5,2.9-0.6c0.9-0.1,2-0.1,3.2-0.1c2.3,0,4,0.5,5.2,1.5
			c1.2,1.1,1.7,2.5,1.7,4.4v0.6c-0.8-0.3-1.5-0.5-2.3-0.8c-0.8-0.1-1.7-0.3-2.6-0.5c-0.9-0.1-1.8-0.1-3.1-0.1c-2,0-3.7,0.1-5.2,0.6
			c-1.5,0.5-2.9,1.1-4.1,1.8c-1.2,0.9-2,2-2.8,3.2c-0.6,1.2-0.9,2.9-0.9,4.6v0.1c0,1.5,0.3,3.1,0.9,4.3c0.6,1.2,1.4,2.3,2.5,3.1
			c1.1,0.9,2.2,1.5,3.5,1.8C330.3,77.7,331.8,77.9,333.4,77.9z M300.3,77.3h9.2v-12c0-2.6,0.5-4.8,1.2-6.5c0.8-1.7,1.8-2.9,3.4-3.8
			c1.5-0.8,3.2-1.2,5.2-1.2h0.5v-9.7c-1.8,0-3.4,0.1-4.8,0.8c-1.4,0.6-2.5,1.4-3.4,2.5c-0.9,1.1-1.7,2.5-2.3,3.8v-6.3h-9.2v32.4
			H300.3z M276.5,71.6c-1.1,0-1.8-0.1-2.6-0.5c-0.8-0.3-1.4-0.8-1.7-1.4c-0.5-0.6-0.6-1.2-0.6-2.2v-0.1c0-0.9,0.3-1.8,0.8-2.5
			c0.5-0.6,1.2-1.2,2.2-1.5c0.9-0.3,2.2-0.5,3.4-0.5c1.1,0,2.2,0.1,3.2,0.3c1.1,0.2,1.8,0.5,2.6,0.9v1.7c0,1.1-0.3,2.2-0.9,2.9
			c-0.6,0.9-1.4,1.5-2.5,2C279.1,71.3,277.9,71.6,276.5,71.6z M273.8,77.9c2.3,0,4.1-0.5,5.7-1.1c1.5-0.8,2.9-1.7,4-2.9v3.5h8.9
			V58.5c0-2.2-0.3-4.1-0.9-5.8c-0.6-1.7-1.4-3.2-2.6-4.4c-1.1-1.2-2.6-2-4.4-2.6c-1.8-0.6-4-0.9-6.5-0.9c-1.8,0-3.5,0.1-4.9,0.3
			c-1.4,0.1-2.8,0.5-4,0.9c-1.2,0.3-2.5,0.9-3.7,1.4l2.3,7.1c0.9-0.3,2-0.6,2.9-0.9c0.9-0.3,1.8-0.5,2.9-0.6c0.9-0.1,2-0.1,3.2-0.1
			c2.3,0,4,0.5,5.2,1.5c1.2,1.1,1.7,2.5,1.7,4.4v0.6c-0.8-0.3-1.5-0.5-2.3-0.8c-0.8-0.1-1.7-0.3-2.6-0.5c-0.9-0.1-1.8-0.1-3.1-0.1
			c-2,0-3.7,0.1-5.2,0.6c-1.5,0.5-2.9,1.1-4.1,1.8c-1.2,0.9-2,2-2.8,3.2c-0.6,1.2-0.9,2.9-0.9,4.6v0.1c0,1.5,0.3,3.1,0.9,4.3
			c0.6,1.2,1.4,2.3,2.5,3.1c1.1,0.9,2.2,1.5,3.5,1.8C270.7,77.7,272.2,77.9,273.8,77.9z M226.8,77.3h9.2V59.2c0-1.4,0.3-2.6,0.8-3.7
			c0.5-0.9,1.1-1.7,2-2.2c0.9-0.5,1.8-0.8,3.1-0.8c1.7,0,3.1,0.6,4.1,1.7c0.9,1.1,1.4,2.8,1.5,4.9v18.1h9.2v-21
			c0-2.5-0.5-4.6-1.4-6.5c-0.9-1.8-2.2-3.2-3.7-4.1c-1.7-0.9-3.7-1.5-6-1.5c-1.5,0-2.9,0.3-4,0.8c-1.2,0.5-2.2,1.1-3.1,1.8
			c-0.9,0.8-1.7,1.7-2.3,2.6V33h-9.2v44.2L226.8,77.3L226.8,77.3z M210.8,64.4L210.8,64.4c0,1.2-0.3,2-0.8,2.8
			c-0.5,0.6-1.2,1.2-2.3,1.5c-0.9,0.3-2.2,0.5-3.5,0.5h-11.1v-9.4h10.8c2.5,0,4.1,0.5,5.2,1.2C210.3,61.8,210.8,63,210.8,64.4z
			 M208.5,47.6c0,1.1-0.3,1.8-0.8,2.6c-0.6,0.6-1.4,1.1-2.3,1.4c-1.1,0.3-2.2,0.5-3.5,0.5h-8.6v-8.9h9.2c2,0,3.5,0.3,4.4,1.1
			C207.9,45,208.5,46.1,208.5,47.6L208.5,47.6z M184.1,77.3h20.1c2.5,0,4.6-0.3,6.5-0.8c2-0.5,3.7-1.2,5.1-2.2
			c1.4-0.9,2.5-2.2,3.2-3.7c0.8-1.4,1.1-3.1,1.1-5.1v-0.1c0-1.8-0.3-3.5-0.9-4.8c-0.6-1.4-1.5-2.5-2.8-3.4c-1.2-0.9-2.6-1.7-4.3-2.3
			c1.1-0.6,2-1.2,2.8-2c0.8-0.8,1.5-1.8,2-2.9c0.5-1.2,0.8-2.5,0.8-4.1v-0.1c0-1.4-0.3-2.8-0.8-4c-0.5-1.2-1.2-2.3-2.2-3.2
			c-1.2-1.2-2.8-2.2-4.6-2.8c-1.8-0.6-4-0.9-6.5-0.9h-19.7v42.4L184.1,77.3L184.1,77.3z"/>
		<path class="st0" d="M616.3,70.8c-1.5,0-2.9-0.3-4.1-0.8c-1.2-0.5-2.5-1.2-3.4-2.2c-1.1-0.9-1.8-2-2.3-3.4
			c-0.6-1.2-0.9-2.8-0.9-4.3v-0.1c0-1.7,0.3-3.1,0.9-4.3c0.6-1.2,1.4-2.5,2.3-3.4c1.1-0.9,2.2-1.7,3.4-2.2c1.2-0.5,2.8-0.8,4.1-0.8
			c1.5,0,2.9,0.3,4.3,0.8c1.4,0.5,2.6,1.2,3.7,2.2c1.1,0.9,2,2,2.6,3.4c0.6,1.2,0.9,2.8,0.9,4.3v0.1c0,1.5-0.3,3.1-0.9,4.3
			c-0.6,1.2-1.5,2.5-2.6,3.4c-1.1,0.9-2.3,1.7-3.7,2.2C619.2,70.5,617.8,70.7,616.3,70.8 M616.4,87.1c2.5,0,4.8-0.3,6.8-1.1
			c2-0.6,3.7-1.7,5.1-3.1c1.2-1.2,2.3-2.8,2.9-4.6s1.1-4,1.1-6.5V46.1h-4.6v5.7c-0.8-1.1-1.8-2.2-3.1-3.1c-1.1-0.9-2.5-1.7-4-2.3
			c-1.5-0.6-3.2-0.9-5.2-0.9c-1.5,0-2.9,0.1-4.4,0.6c-1.4,0.5-2.8,1.1-4,1.8c-1.2,0.8-2.3,1.8-3.2,3.1c-0.9,1.2-1.7,2.6-2.2,4.1
			c-0.5,1.5-0.8,3.2-0.8,5.1v0.1c0,1.8,0.3,3.5,0.8,4.9c0.5,1.5,1.2,2.9,2.2,4c0.9,1.2,2,2.2,3.2,3.1c1.2,0.8,2.6,1.5,4,1.8
			c1.4,0.5,2.9,0.6,4.4,0.6c1.8,0,3.7-0.3,5.1-0.9c1.5-0.6,2.9-1.4,4-2.3c1.2-1.1,2.2-2.2,3.1-3.4v3.7c0,2.5-0.5,4.4-1.4,6.1
			c-0.9,1.7-2.3,2.9-4,3.7c-1.7,0.8-3.7,1.2-6,1.2s-4.3-0.3-6.3-1.1c-2-0.6-3.8-1.7-5.7-2.9l-2.2,3.7c2.2,1.4,4.3,2.6,6.8,3.2
			C611.2,86.8,613.8,87.1,616.4,87.1z M565.3,77.3h4.6v-18c0-2,0.5-3.7,1.2-5.2c0.8-1.5,1.8-2.6,3.4-3.4c1.4-0.8,3.1-1.2,4.8-1.2
			c1.8,0,3.4,0.5,4.8,1.2c1.2,0.8,2.3,1.8,2.9,3.2c0.6,1.4,1.1,3.1,1.1,5.1v18.3h4.6V57.9c0-2.5-0.5-4.6-1.4-6.6
			c-0.9-1.8-2.3-3.4-4.1-4.4c-1.8-1.1-4-1.5-6.5-1.5c-1.8,0-3.4,0.3-4.8,0.8c-1.4,0.6-2.5,1.2-3.5,2.2c-0.9,0.9-1.8,2-2.5,3.1v-5.4
			h-4.6L565.3,77.3L565.3,77.3z M549.8,77.3h4.6V45.9h-4.6V77.3z M549.5,39.2h5.4v-5.1h-5.4V39.2z M514.9,77.3h4.6v-8.1l6.3-6.5
			L537,77.3h5.5L529,59.5l13.2-13.4h-5.8l-16.9,17.7V33.2h-4.6L514.9,77.3L514.9,77.3z M490.2,73.9c-1.7,0-3.2-0.3-4.6-0.9
			c-1.4-0.6-2.6-1.5-3.7-2.6c-1.1-1.1-1.8-2.5-2.5-3.8c-0.6-1.5-0.9-3.1-0.9-4.8v-0.1c0-1.7,0.3-3.2,0.8-4.6
			c0.6-1.5,1.4-2.8,2.3-3.8c1.1-1.1,2.2-2,3.7-2.6c1.4-0.6,2.9-0.9,4.6-0.9c1.7,0,3.2,0.3,4.6,0.9c1.4,0.6,2.6,1.5,3.7,2.6
			c1.1,1.1,1.8,2.5,2.5,3.8c0.6,1.5,0.9,3.1,0.9,4.8v0.1c0,1.7-0.3,3.2-0.8,4.6c-0.6,1.4-1.4,2.8-2.3,3.8c-1.1,1.1-2.3,2-3.7,2.6
			C493.4,73.4,491.9,73.9,490.2,73.9z M490,78c2.3,0,4.6-0.5,6.6-1.4c2-0.9,3.7-2,5.2-3.5c1.5-1.5,2.6-3.2,3.4-5.2
			c0.8-2,1.2-4,1.2-6.3v-0.1c0-2.3-0.5-4.3-1.2-6.3c-0.8-2-2-3.7-3.4-5.2c-1.5-1.5-3.2-2.6-5.2-3.5c-2-0.9-4.1-1.2-6.5-1.2
			c-2.3,0-4.6,0.5-6.6,1.4c-2,0.9-3.7,2-5.2,3.5c-1.5,1.5-2.6,3.2-3.4,5.2c-0.8,2-1.2,4-1.2,6.3v0.1c0,2.3,0.5,4.3,1.2,6.3
			c0.8,2,1.8,3.7,3.4,5.2c1.4,1.5,3.2,2.6,5.1,3.5C485.6,77.6,487.7,78,490,78z M451,73.9c-1.7,0-3.2-0.3-4.6-0.9
			c-1.4-0.6-2.6-1.5-3.7-2.6c-1.1-1.1-1.8-2.5-2.5-3.8c-0.6-1.5-0.9-3.1-0.9-4.8v-0.1c0-1.7,0.3-3.2,0.8-4.6
			c0.6-1.5,1.4-2.8,2.3-3.8c1.1-1.1,2.2-2,3.7-2.6c1.4-0.6,2.9-0.9,4.6-0.9c1.7,0,3.2,0.3,4.6,0.9c1.4,0.6,2.6,1.5,3.7,2.6
			c1.1,1.1,1.8,2.5,2.5,3.8c0.6,1.5,0.9,3.1,0.9,4.8v0.1c0,1.7-0.3,3.2-0.8,4.6c-0.6,1.4-1.4,2.8-2.3,3.8c-1.1,1.1-2.3,2-3.7,2.6
			C454.4,73.4,452.9,73.9,451,73.9z M451,78c2.3,0,4.6-0.5,6.6-1.4c2-0.9,3.7-2,5.2-3.5c1.5-1.5,2.6-3.2,3.4-5.2
			c0.8-2,1.2-4,1.2-6.3v-0.1c0-2.3-0.5-4.3-1.2-6.3c-0.8-2-2-3.7-3.4-5.2c-1.5-1.5-3.2-2.6-5.2-3.5c-2-0.9-4.1-1.2-6.5-1.2
			c-2.3,0-4.6,0.5-6.6,1.4c-2,0.9-3.7,2-5.2,3.5c-1.5,1.5-2.6,3.2-3.4,5.2c-0.8,2-1.2,4-1.2,6.3v0.1c0,2.3,0.5,4.3,1.2,6.3
			c0.8,2,1.8,3.7,3.4,5.2c1.4,1.5,3.2,2.6,5.1,3.5C446.4,77.6,448.6,78,451,78z M423.1,65.3L423.1,65.3c0,1.7-0.5,3.1-1.2,4.1
			c-0.8,1.1-2,2-3.5,2.6s-3.4,0.9-5.5,0.9h-14.3V58.1h13.4c3.7,0,6.5,0.6,8.4,1.8C422.1,61.1,423.1,63,423.1,65.3z M420.8,46.2
			c0,1.7-0.5,3.1-1.2,4.1c-0.8,1.1-2,2-3.4,2.6c-1.5,0.6-3.2,0.9-5.1,0.9h-12.6V39.3h12.9c2,0,3.7,0.3,5.1,0.9
			c1.4,0.6,2.5,1.4,3.2,2.5C420.5,43.5,420.8,44.7,420.8,46.2L420.8,46.2z M393.7,77.3h18.9c2.3,0,4.4-0.3,6.3-0.8
			c1.8-0.5,3.5-1.2,4.9-2.3c1.4-1.1,2.5-2.2,3.1-3.7c0.8-1.4,1.1-3.1,1.1-4.9v-0.1c0-1.4-0.3-2.8-0.8-3.8c-0.5-1.1-1.1-2.2-2-2.9
			c-0.8-0.8-1.8-1.5-2.9-2.2c-1.1-0.6-2.3-1.1-3.5-1.4c0.9-0.3,1.7-0.8,2.5-1.4c0.8-0.6,1.5-1.2,2.2-2c0.6-0.8,1.1-1.7,1.5-2.8
			c0.3-1.1,0.6-2.3,0.6-3.7v-0.1c0-1.4-0.3-2.6-0.8-3.7c-0.5-1.1-1.1-2.2-2-3.1c-1.2-1.2-2.8-2.2-4.6-2.8c-1.8-0.6-4-0.9-6.5-0.9
			h-18L393.7,77.3L393.7,77.3z"/>
		<path class="st0" d="M504.5,108.9h2.3v-2.6h-2.3V108.9z M492.9,93.7c1.1,0,2,0.1,2.9,0.5c0.9,0.3,1.5,0.8,2.2,1.4
			c0.6,0.6,1.1,1.4,1.4,2.2c0.3,0.8,0.5,1.7,0.5,2.6l0,0c0,0.9-0.1,1.8-0.5,2.6s-0.8,1.5-1.4,2.2c-0.6,0.6-1.4,1.1-2.2,1.4
			c-0.9,0.3-1.8,0.5-2.9,0.5h-4V93.3h4V93.7z M487.1,108.9h5.8c1.1,0,2-0.1,2.9-0.5c0.9-0.3,1.7-0.6,2.5-1.2
			c0.8-0.5,1.4-1.1,1.8-1.8c0.5-0.8,0.9-1.5,1.2-2.3c0.3-0.9,0.5-1.7,0.5-2.8l0,0c0-1.2-0.1-2.3-0.6-3.4c-0.5-1.1-1.1-1.8-1.8-2.6
			c-0.8-0.8-1.7-1.4-2.9-1.8c-1.1-0.5-2.3-0.6-3.7-0.6h-5.7L487.1,108.9L487.1,108.9z M475.7,108.9h2V93.7h5.7v-1.8H470v1.8h5.7
			L475.7,108.9L475.7,108.9z M458.7,108.9h11.5v-1.8h-9.5V91.9h-1.8v17H458.7z M444.9,108.9h2.3v-2.6h-2.3V108.9z M436.6,108.9h2
			V93.7h5.7v-1.8h-13.4v1.8h5.7L436.6,108.9L436.6,108.9z M419.8,109.1h1.7l7.4-17.2h-2l-6.1,14.6l-6-14.6h-2.2L419.8,109.1z
			 M399.9,101.2v-7.5h4.3c0.9,0,1.7,0.1,2.5,0.5c0.6,0.3,1.2,0.6,1.5,1.2c0.3,0.6,0.6,1.2,0.6,2l0,0c0,0.8-0.1,1.4-0.6,2
			c-0.5,0.6-0.9,0.9-1.7,1.2c-0.8,0.3-1.5,0.5-2.5,0.5h-4.1L399.9,101.2L399.9,101.2z M397.9,108.9h1.8v-6h4.1
			c0.9,0,1.8-0.1,2.6-0.3c0.8-0.3,1.5-0.6,2.2-1.1c0.6-0.5,1.1-1.1,1.4-1.7c0.3-0.8,0.5-1.5,0.5-2.5l0,0c0-0.8-0.1-1.5-0.5-2.3
			c-0.3-0.6-0.8-1.2-1.2-1.7c-0.6-0.5-1.2-0.8-2-1.1s-1.7-0.3-2.6-0.3h-6.3V108.9L397.9,108.9z M374.7,102.6l3.8-8.6l3.8,8.6H374.7z
			 M369.9,108.9h2l2-4.4h9.2l2,4.4h2l-7.7-17.2h-1.8L369.9,108.9z M364.5,108.9h1.8v-17h-1.8V108.9z M351.3,93.7
			c1.1,0,2,0.1,2.9,0.5c0.9,0.3,1.5,0.8,2.2,1.4c0.6,0.6,1.1,1.4,1.4,2.2c0.3,0.8,0.5,1.7,0.5,2.6l0,0c0,0.9-0.1,1.8-0.5,2.6
			s-0.8,1.5-1.4,2.2c-0.6,0.6-1.4,1.1-2.2,1.4c-0.9,0.3-1.8,0.5-2.9,0.5h-4V93.3h4V93.7z M345.3,108.9h5.8c1.1,0,2-0.1,2.9-0.5
			c0.9-0.3,1.7-0.6,2.5-1.2c0.8-0.5,1.4-1.1,1.8-1.8c0.5-0.8,0.9-1.5,1.2-2.3c0.3-0.9,0.5-1.7,0.5-2.8l0,0c0-1.2-0.1-2.3-0.6-3.4
			c-0.5-1.1-1.1-1.8-1.8-2.6c-0.8-0.8-1.7-1.4-2.9-1.8c-1.1-0.5-2.3-0.6-3.7-0.6h-5.8v17L345.3,108.9L345.3,108.9z M326.2,108.9h1.8
			v-14l11.1,14h1.5v-17h-1.8v13.7L328,91.9h-1.8V108.9z M319.2,108.9h1.8v-17h-1.8V108.9z M302,109.2c0.9,0,1.7-0.1,2.3-0.3
			c0.8-0.1,1.4-0.6,1.8-0.9c0.5-0.5,0.9-0.9,1.2-1.5c0.3-0.6,0.5-1.2,0.5-2l0,0c0-0.9-0.1-1.5-0.6-2.2c-0.5-0.6-1.1-1.1-1.8-1.5
			c-0.8-0.5-1.8-0.8-3.1-1.1c-0.9-0.1-1.7-0.5-2.3-0.6c-0.6-0.1-1.1-0.5-1.4-0.8s-0.6-0.6-0.8-0.9c-0.1-0.3-0.1-0.6-0.1-1.1l0,0
			c0-0.5,0.1-0.9,0.5-1.4c0.3-0.5,0.8-0.8,1.2-0.9c0.6-0.3,1.2-0.3,1.8-0.3c0.9,0,1.7,0.1,2.5,0.5c0.8,0.3,1.5,0.8,2.5,1.4l1.1-1.5
			c-0.6-0.5-1.2-0.9-1.7-1.2c-0.6-0.3-1.2-0.6-2-0.8c-0.6-0.1-1.4-0.3-2.3-0.3c-0.8,0-1.5,0.1-2.3,0.3c-0.6,0.3-1.2,0.6-1.8,0.9
			c-0.5,0.5-0.9,0.9-1.2,1.5c-0.3,0.6-0.5,1.2-0.5,1.8l0,0c0,0.8,0.1,1.2,0.3,1.8c0.1,0.5,0.6,0.9,1.1,1.4c0.5,0.3,1.1,0.8,1.8,0.9
			c0.8,0.3,1.5,0.5,2.6,0.8c0.9,0.1,1.7,0.5,2.2,0.6c0.6,0.1,1.1,0.5,1.4,0.8s0.6,0.6,0.6,0.9c0.1,0.3,0.1,0.6,0.1,1.1l0,0
			c0,0.6-0.1,1.1-0.5,1.5c-0.3,0.5-0.8,0.8-1.4,1.1c-0.6,0.3-1.2,0.3-2,0.3s-1.5-0.1-2.2-0.3c-0.6-0.1-1.2-0.5-1.8-0.8
			c-0.6-0.3-1.2-0.8-1.8-1.4l-1.2,1.4c1.1,0.9,2.2,1.5,3.2,2C299.6,108.9,300.8,109.2,302,109.2z M285,108.9h2v-6.8l7.1-10.3h-2.3
			l-5.8,8.4l-5.7-8.4h-2.3l7.1,10.3L285,108.9L285,108.9z M266.4,102.6l3.8-8.6l3.8,8.6H266.4z M261.8,108.9h2l2-4.4h9.2l2,4.4h2
			l-7.7-17.2h-1.8L261.8,108.9z M251.2,93.7c1.1,0,2,0.1,2.9,0.5c0.9,0.3,1.5,0.8,2.2,1.4c0.6,0.6,1.1,1.4,1.4,2.2
			c0.3,0.8,0.5,1.7,0.5,2.6l0,0c0,0.9-0.1,1.8-0.5,2.6s-0.8,1.5-1.4,2.2c-0.6,0.6-1.4,1.1-2.2,1.4c-0.9,0.3-1.8,0.5-2.9,0.5h-4V93.3
			h4V93.7z M245.4,108.9h5.8c1.1,0,2-0.1,2.9-0.5c0.9-0.3,1.7-0.6,2.5-1.2c0.8-0.5,1.4-1.1,1.8-1.8c0.5-0.8,0.9-1.5,1.2-2.3
			c0.3-0.9,0.5-1.7,0.5-2.8l0,0c0-1.2-0.1-2.3-0.6-3.4c-0.5-1.1-1.1-1.8-1.8-2.6c-0.8-0.8-1.7-1.4-2.9-1.8c-1.1-0.5-2.3-0.6-3.7-0.6
			h-5.8v17L245.4,108.9L245.4,108.9z M238.4,108.9h1.8v-17h-1.8V108.9z M223.2,108.9h11.5v-1.8h-9.5V91.9h-1.8v17H223.2z
			 M210.5,107.4c-0.9,0-1.8-0.1-2.8-0.6c-0.8-0.3-1.5-0.9-2.2-1.5s-1.1-1.4-1.4-2.3c-0.3-0.8-0.5-1.7-0.5-2.8l0,0
			c0-0.9,0.1-1.8,0.5-2.8c0.3-0.8,0.8-1.5,1.4-2.2s1.2-1.1,2.2-1.5c0.8-0.3,1.7-0.6,2.6-0.6s1.8,0.1,2.8,0.6
			c0.8,0.3,1.5,0.9,2.2,1.5s1.1,1.4,1.4,2.3c0.3,0.9,0.5,1.7,0.5,2.8l0,0c0,0.9-0.1,1.8-0.5,2.8c-0.3,0.8-0.8,1.5-1.4,2.2
			s-1.2,1.1-2.2,1.5C212.4,107.2,211.4,107.4,210.5,107.4z M210.5,109.2c1.1,0,2-0.1,2.9-0.5c0.9-0.3,1.7-0.8,2.5-1.2
			c0.8-0.6,1.4-1.2,1.8-2c0.5-0.8,0.9-1.5,1.2-2.5c0.3-0.9,0.5-1.8,0.5-2.8l0,0c0-0.9-0.1-1.8-0.5-2.8c-0.3-0.9-0.6-1.7-1.2-2.5
			c-0.5-0.8-1.1-1.4-1.8-1.8c-0.8-0.6-1.5-0.9-2.5-1.2c-0.9-0.3-1.8-0.5-2.9-0.5c-1.1,0-2,0.1-2.9,0.5c-0.9,0.3-1.7,0.8-2.5,1.2
			c-0.8,0.6-1.4,1.2-1.8,2c-0.5,0.8-0.9,1.5-1.2,2.5c-0.3,0.9-0.5,1.8-0.5,2.8l0,0c0,0.9,0.1,1.8,0.5,2.8c0.3,0.9,0.6,1.7,1.1,2.5
			c0.5,0.8,1.1,1.4,1.8,1.8c0.8,0.6,1.5,0.9,2.5,1.2C208.5,109.1,209.4,109.2,210.5,109.2z M184.1,108.9h1.8v-7.7h9.8v7.7h1.8v-17
			h-1.8v7.5h-9.8v-7.5h-1.8V108.9z"/>
		<g>
			<path class="st0" d="M633.2,126.1H183.9c-0.5,0-0.9-0.4-0.9-0.9c0-0.5,0.4-0.9,0.9-0.9h449.2c0.5,0,0.9,0.4,0.9,0.9
				C634.1,125.7,633.7,126.1,633.2,126.1z"/>
		</g>
	</g>
	<g>
		<path class="st7" d="M712.5,65.7v14h-15.7V33h31.8c12.9,0,19.4,5.4,19.4,16.2c0,10.8-5.5,16.3-16.6,16.4L712.5,65.7L712.5,65.7z
			 M712.5,44.5v10.5h13.9c4,0,6.1-1.7,6.1-5.2c0,0,0-0.9,0-2.7c0-1.8-1.4-2.6-4.2-2.7L712.5,44.5L712.5,44.5z"/>
		<path class="st7" d="M756.9,74.8l-2.3,4.9h-15.7L761.1,33h16l22.2,46.7h-15.7l-2.3-4.9H756.9z M769.1,49.2l-6.3,13.2h12.5
			L769.1,49.2z"/>
		<path class="st7" d="M816.5,48.8v31h-15.7V33h22l22.4,27.8V33h15.7v46.7h-19.5L816.5,48.8z"/>
		<path class="st7" d="M712.5,129.9h-15.7V83.2h15.7V129.9z"/>
		<path class="st7" d="M730.5,98.9v31h-15.7V83.2h22l22.4,27.8V83.2h15.7v46.7h-19.5L730.5,98.9z"/>
		<path class="st7" d="M778.1,129.9V83.2h31.8c17.1,0,25.6,7.6,25.6,22.9c0,15.9-7.6,23.8-22.9,23.8H778.1z M793.7,117.5H807
			c8.5,0,12.8-3.8,12.8-11.3c-0.2-7-3.8-10.5-11-10.6h-15V117.5z"/>
		<path class="st7" d="M852.7,129.9H837V83.2h15.7V129.9z"/>
		<path class="st7" d="M870.7,125l-2.3,4.9h-15.7l22.2-46.7h16l22.2,46.7h-15.7L895,125H870.7z M882.8,99.4l-6.3,13.2h12.5
			L882.8,99.4z"/>
		<path class="st7" d="M696.8,180.1v-46.7h31.8c17.1,0,25.6,7.6,25.6,22.9c0,15.9-7.6,23.8-22.9,23.8L696.8,180.1L696.8,180.1z
			 M712.5,167.7h13.2c8.5,0,12.8-3.8,12.8-11.3c-0.2-7-3.8-10.5-11-10.6h-15V167.7z"/>
		<path class="st7" d="M771.4,159.5v20.5h-15.7v-46.7h18.9l14.5,30.5l14.5-30.5h18.9v46.7h-15.7v-20.5l-9.8,20.5h-16L771.4,159.5z"
			/>
		<path class="st7" d="M836.2,136c4.7-2.2,10.7-3.4,18.2-3.5c17.4,0.4,27.3,6.4,29.6,18.2h-16.4c-2-3.9-6.4-5.8-13.2-5.8
			c-5.1,0-8.8,1.1-11.2,3.2c-2.1,1.9-3.2,4.6-3.2,8.1v0.2c0,7.5,4.8,11.3,14.3,11.3c6.9,0,11.3-2,13.2-5.9H884
			c-2.2,11.7-12.1,17.8-29.6,18.3c-20-0.6-30.1-8.5-30.1-23.8C824.3,146.5,828.3,139.8,836.2,136z"/>
	</g>
	<path class="st7" d="M665.3,180.9c-0.5,0-0.9-0.4-0.9-0.9V34.6c0-0.5,0.4-0.9,0.9-0.9s0.9,0.4,0.9,0.9v145.5
		C666.2,180.5,665.8,180.9,665.3,180.9z"/>
</g>
</svg>
